<svg id="logo" xmlns="http://www.w3.org/2000/svg" width="232.116" height="62.821" viewBox="0 0 232.116 62.821">
  <g id="グループ_3" data-name="グループ 3" transform="translate(87.019 15.432)">
    <path id="パス_5" data-name="パス 5" d="M130.5,64.917v-6L146.152,40.6H131.189V34.5h24.117v5.906L139.753,58.716h16.538v6.2Z" transform="translate(-130.5 -33.712)" fill="#fff"/>
    <path id="パス_6" data-name="パス 6" d="M172.978,65.692C164.119,66.283,158.9,59.2,159,50.73S162.445,33.6,171.9,33.7s14.273,6.4,14.175,14.864S182.231,65.791,172.978,65.692Zm6.1-16.931c0-6-2.559-9.056-7.087-8.663s-6.5,5.02-6.1,10.336,2.264,8.761,6.3,8.761S179.475,54.569,179.081,48.761Z" transform="translate(-130.945 -33.699)" fill="#fff"/>
    <path id="パス_7" data-name="パス 7" d="M209.783,64.917V52.12H196.691v12.8H189.8V34.5h6.891V45.919h13.092V34.5h6.792V64.917Z" transform="translate(-131.427 -33.712)" fill="#fff"/>
    <path id="パス_8" data-name="パス 8" d="M234.578,65.692c-8.859.591-14.077-6.5-13.978-14.963S224.045,33.6,233.5,33.7s14.273,6.4,14.175,14.864S243.93,65.791,234.578,65.692Zm6.1-16.931c0-6-2.559-9.056-7.087-8.663s-6.5,5.02-6.1,10.336,2.264,8.761,6.3,8.761S241.173,54.569,240.681,48.761Z" transform="translate(-131.908 -33.699)" fill="#fff"/>
    <path id="パス_9" data-name="パス 9" d="M270.006,64.917,257.8,43.064l.492,21.853H251.5V34.5h8.17l11.517,21.164L270.7,34.5h6.792V64.917Z" transform="translate(-132.391 -33.712)" fill="#fff"/>
  </g>
  <g id="グループ_4" data-name="グループ 4">
    <path id="パス_10" data-name="パス 10" d="M78.916,80.8a2.067,2.067,0,0,1-1.673-.886c-5.611-7.481-24.806-7.58-31.5.2A2.067,2.067,0,0,1,42.1,78.736V26.564a2.067,2.067,0,0,1,.394-1.181c4.43-7.481,27.562-10.927,36.52-2.067,8.859-8.859,31.992-5.513,36.52,2.067a2.067,2.067,0,0,1,.394,1.181V78.638a2.067,2.067,0,0,1-3.642,1.378c-3.347-3.741-9.942-5.808-15.848-5.513s-12.4.787-15.652,5.316a2.067,2.067,0,0,1-1.87.984ZM61.591,70.074c9.45,0,14.864,3.248,17.423,5.513,5.316-5.906,25.2-7.186,32.681-1.378V27.352c-3.741-3.642-7.481-4.922-15.258-5.119-4.43-.3-13.092.984-15.652,5.316a2.067,2.067,0,0,1-1.87,1.181c-2.067-.1-1.477-1.969-5.02-4.036-7.284-3.938-21.755-3.839-27.661,2.658V74.307a27.563,27.563,0,0,1,15.356-4.233Z" transform="translate(-42.1 -18.022)" fill="#fff"/>
    <path id="パス_11" data-name="パス 11" d="M91.719,66.464c-1.477,0-3.052-1.28-4.528-3.741a26.086,26.086,0,0,1-3.642,3.839L80.5,64l.3-.3H73.409v1.477H70.063V47.958h12.9v2.658H79.02v1.969h3.347v6.6H79.02v1.969h3.642v.984a33.371,33.371,0,0,0,2.756-3.15,41.639,41.639,0,0,1-1.772-12.7H68.389v5.808c0,5.217-1.181,10.927-3.15,14.47L61.4,64.4c1.969-2.953,2.855-7.481,2.855-12.4V42.642H83.647V40.969H82.17V38.7h-6.6V40.87h-4.43V38.7H62.188V35.062h8.958V32.7h5.02a3.248,3.248,0,0,0-.591,2.461h6.694V32.7h5.02c-.591.492-.591,1.083-.591,2.461h9.056V38.8H86.6V40.87h1.181c-.3.2-.394.394-.394,1.87h3.839l-1.378-2.559L92.8,39.1l2.756,4.725L92.506,45l-.3-.591v1.87H87.387a38.39,38.39,0,0,0,.984,8.564,33.862,33.862,0,0,0,3.445-6.989l3.839,1.969c-.689.1-.984.591-1.575,1.969a56.9,56.9,0,0,1-4.233,7.383c.787,1.575,1.575,2.461,2.264,2.461s1.28-.886,2.067-3.544l2.264,2.658C95.459,64.2,93.786,66.464,91.719,66.464ZM76.461,50.616H73.409v1.969h3.052Zm2.855,4.233H73.409v1.969h5.906ZM76.461,59.18H73.409v1.969h3.052Z" transform="translate(-42.401 -18.251)" fill="#fff"/>
  </g>
</svg>
