<svg id="lpgo_mini" xmlns="http://www.w3.org/2000/svg" width="32.623" height="37.198" viewBox="0 0 32.623 37.198">
  <g id="グループ_65" data-name="グループ 65">
    <path id="パス_297" data-name="パス 297" d="M34.711,41.756a.929.929,0,0,1-.774-.413c-2.478-3.3-10.995-3.355-13.989.1a.929.929,0,0,1-1.549-.619V17.753a.929.929,0,0,1,.155-.516c1.962-3.3,12.182-4.852,16.157-.929,3.923-3.923,14.2-2.426,16.157.929a.929.929,0,0,1,.155.516V40.827a.929.929,0,0,1-1.6.619c-1.445-1.652-4.439-2.581-7.02-2.426s-5.472.361-6.969,2.323a.929.929,0,0,1-.723.413Zm-7.691-4.7c4.181,0,6.607,1.445,7.691,2.478,2.323-2.633,11.15-3.149,14.5-.619v-20.8c-1.652-1.6-3.3-2.22-6.762-2.271-1.91-.1-5.73.465-6.917,2.374a.929.929,0,0,1-.826.516c-.929-.052-.671-.878-2.22-1.807-3.252-1.755-9.653-1.7-12.285,1.187v20.8a12.234,12.234,0,0,1,6.814-1.858Z" transform="translate(-18.4 -13.969)" fill="#fff"/>
    <path id="パス_298" data-name="パス 298" d="M48.121,41.321c-.671,0-1.342-.568-2.013-1.652a11.562,11.562,0,0,1-1.652,1.7l-1.342-1.187.155-.1H40.017v.671h-1.5v-7.64h5.73V34.3H42.494v.878H43.94v2.891H42.494v.878h1.652v.413a14.764,14.764,0,0,0,1.239-1.394,18.479,18.479,0,0,1-.878-5.626H37.8V34.92A14.556,14.556,0,0,1,36.4,41.373l-1.7-.981a10.227,10.227,0,0,0,1.29-5.472V30.791h8.517v-.826H43.94v-.981H40.946v.929H38.984v-.929H35.061v-1.6h3.923V26.3H41.2a1.445,1.445,0,0,0-.258,1.084h2.942V26.3h2.22c-.258.206-.258.516-.258,1.084h4.026v1.6H45.85v.929h.516c-.155.1-.155.155-.155.826h1.7l-.671-1.084,1.342-.465,1.239,2.065-1.342.516-.155-.258v.826H46.211a17.034,17.034,0,0,0,.413,3.768,15.021,15.021,0,0,0,1.549-3.1l1.7.878c-.31.052-.413.258-.723.878a25.242,25.242,0,0,1-1.858,3.3c.361.723.723,1.084.981,1.084s.568-.413.929-1.6l.981,1.187C49.773,40.289,49.05,41.321,48.121,41.321ZM41.359,34.3H40.017v.878h1.342ZM42.6,36.159H40.017v.878H42.6Zm-1.239,1.91H40.017v.878h1.342Z" transform="translate(-26.286 -19.935)" fill="#fff"/>
  </g>
  <g id="グループ_66" data-name="グループ 66" transform="translate(0.103 30.161)">
    <path id="パス_299" data-name="パス 299" d="M18.6,79.459V77.807l3.045-3.355H18.7V72.8h5.42v1.6l-2.994,3.355h3.2v1.652Z" transform="translate(-18.6 -72.594)" fill="#fff"/>
    <path id="パス_300" data-name="パス 300" d="M33.528,79.42c-4.078.413-4.284-7.02-.258-7.02S37.554,79.42,33.528,79.42Zm1.032-3.665c0-1.136-.413-1.652-1.239-1.6s-1.084.929-1.032,1.91.465,1.652,1.239,1.6,1.084-.981,1.032-1.962Z" transform="translate(-24.289 -72.4)" fill="#fff"/>
    <path id="パス_301" data-name="パス 301" d="M47.529,79.459V76.826H45.258v2.633H43.4V72.8h1.858v2.323h2.271V72.8h1.858v6.659Z" transform="translate(-30.599 -72.594)" fill="#fff"/>
    <path id="パス_302" data-name="パス 302" d="M59.428,79.42c-4.078.413-4.284-7.02-.258-7.02S63.454,79.42,59.428,79.42Zm1.032-3.665c0-1.136-.413-1.652-1.239-1.6s-1.084.929-1.032,1.91.465,1.652,1.239,1.6,1.084-.981.981-1.962Z" transform="translate(-36.819 -72.4)" fill="#fff"/>
    <path id="パス_303" data-name="パス 303" d="M73.12,79.459l-2.168-4.284.155,4.284H69.3V72.8h2.168l1.962,4.078L73.275,72.8h1.858v6.659Z" transform="translate(-43.129 -72.594)" fill="#fff"/>
  </g>
</svg>
